<svg xmlns:inkscape="http://www.inkscape.org/namespaces/inkscape" xmlns:rdf="http://www.w3.org/1999/02/22-rdf-syntax-ns#" xmlns="http://www.w3.org/2000/svg" xmlns:dc="http://purl.org/dc/elements/1.1/" xmlns:ns1="http://sozi.baierouge.fr" xmlns:cc="http://web.resource.org/cc/" xmlns:xlink="http://www.w3.org/1999/xlink" xmlns:sodipodi="http://sodipodi.sourceforge.net/DTD/sodipodi-0.dtd" id="Layer_1" enable-background="new 0 0 360 325.639" xml:space="preserve" viewBox="0 0 360 325.639" version="1.1" y="0px" x="0px">
<g display="none">
	<path d="m180 210.57c-59.552 0-108-48.449-108-108 0-59.552 48.45-108 108-108s108 48.449 108 108c0 59.55-48.45 108-108 108zm0-205.15c-53.57 0-97.15 43.582-97.15 97.152 0 53.568 43.582 97.15 97.151 97.15 53.57 0 97.15-43.582 97.15-97.15 0-53.57-43.58-97.152-97.15-97.152z" display="inline" fill="#000000"/>
</g>
<g>
	<path d="m69.954 325.64h-0.003c-21.064-0.002-41.773-3.641-61.549-10.817l-8.402-3.05 1.56-8.803c10.75-60.646 51.99-111.82 108.54-135.48-7.784-60.802 15.912-122.1 63.057-161.74l6.84-5.75 6.844 5.752c47.144 39.633 70.843 100.94 63.056 161.74 56.551 23.661 97.793 74.831 108.54 135.48l1.562 8.801-8.402 3.051c-19.778 7.179-40.486 10.817-61.552 10.817-39.83 0-78.572-13.107-110.05-37.078-31.48 23.97-70.22 37.08-110.05 37.08zm-45.597-27.93c14.78 4.426 30.077 6.662 45.594 6.664 33.656 0 66.429-10.598 93.535-30.049-11.896-11.58-22.138-24.758-30.541-39.312-8.403-14.553-14.695-30.016-18.776-46.107-45.014 20.36-78.384 60.7-89.813 108.81zm172.15-23.39c27.104 19.451 59.874 30.047 93.532 30.047 15.517 0 30.813-2.236 45.595-6.662-11.43-48.105-44.802-88.45-89.814-108.8-4.079 16.092-10.371 31.553-18.773 46.105-8.41 14.55-18.65 27.72-30.55 39.3zm-62.28-92.9c3.574 15.012 9.319 29.426 17.133 42.962 7.813 13.533 17.423 25.717 28.638 36.318 11.211-10.602 20.821-22.785 28.638-36.318 7.813-13.534 13.561-27.95 17.133-42.96-14.786-4.411-30.145-6.641-45.771-6.641-15.63 0-30.99 2.23-45.77 6.64zm45.77-27.9c16.806 0 33.34 2.28 49.317 6.792 4.88-49.16-13.374-98.229-49.319-132.18-35.946 33.951-54.197 83.021-49.315 132.18 15.98-4.51 32.51-6.79 49.32-6.79z" fill="#000000"/>
</g>
<circle r="80.25" cy="162.58" stroke="#000000" cx="180" stroke-miterlimit="10" stroke-width="5" display="none" fill="none"/>
<metadata fill="#000000"><rdf:RDF fill="#000000"><cc:Work fill="#000000"><dc:format fill="#000000">image/svg+xml</dc:format><dc:type rdf:resource="http://purl.org/dc/dcmitype/StillImage" fill="#000000"/><cc:license rdf:resource="http://creativecommons.org/licenses/publicdomain/" fill="#000000"/><dc:publisher fill="#000000"><cc:Agent rdf:about="http://openclipart.org/" fill="#000000"><dc:title fill="#000000">Openclipart</dc:title></cc:Agent></dc:publisher></cc:Work><cc:License rdf:about="http://creativecommons.org/licenses/publicdomain/" fill="#000000"><cc:permits rdf:resource="http://creativecommons.org/ns#Reproduction" fill="#000000"/><cc:permits rdf:resource="http://creativecommons.org/ns#Distribution" fill="#000000"/><cc:permits rdf:resource="http://creativecommons.org/ns#DerivativeWorks" fill="#000000"/></cc:License></rdf:RDF></metadata></svg>