<svg version="1.1" id="Layer_1" xmlns="http://www.w3.org/2000/svg" xmlns:xlink="http://www.w3.org/1999/xlink" x="0px" y="0px"
	 width="100%" viewBox="0 0 1024 1024" enable-background="new 0 0 1024 1024" xml:space="preserve">
<path fill="#000000" opacity="1.000000" stroke="none" 
	d="
M578.228516,733.108276 
	C574.042297,743.466919 569.557373,753.321167 566.127075,763.529724 
	C563.753845,770.592224 561.144897,777.556519 558.374084,784.439331 
	C555.651733,791.202026 552.099121,797.630493 548.766602,804.502991 
	C558.551575,801.664307 568.264771,799.094299 579.755798,801.203613 
	C574.927185,804.430603 570.565063,804.972656 566.499329,805.776001 
	C558.175598,807.420715 550.730042,810.927368 543.500061,815.095703 
	C542.657776,815.581360 541.858887,816.258301 541.251099,817.015991 
	C537.404297,821.811340 537.116333,821.951782 534.736389,816.081177 
	C531.115234,807.148682 528.064209,797.988159 522.692139,789.856689 
	C521.500732,788.053223 521.303833,786.061035 523.412720,784.570862 
	C525.663391,782.980347 527.290955,784.342041 528.504395,785.988281 
	C531.752991,790.395569 535.239197,794.665833 536.974487,800.020996 
	C537.560669,801.829895 537.662109,804.020386 540.602356,805.566467 
	C557.270142,768.526306 570.726624,730.410400 584.814514,692.250061 
	C576.467712,689.347168 568.860901,686.956970 561.447205,684.070801 
	C545.532166,677.875000 530.700562,669.626709 516.856689,659.623962 
	C514.576355,657.976196 512.694885,656.876221 509.790222,658.978760 
	C469.359253,688.245483 424.101776,700.963257 374.361115,698.261902 
	C352.519623,697.075684 331.617950,691.814575 311.206757,684.244324 
	C308.381989,683.196716 307.673035,681.632019 308.178802,678.514954 
	C314.141602,641.765564 327.976196,608.481628 351.502411,579.455933 
	C353.876251,576.527283 353.665985,574.383118 351.519623,571.594238 
	C341.783783,558.944031 332.134827,546.226257 322.548187,533.462463 
	C320.963745,531.352905 320.088654,528.703918 318.471527,526.626709 
	C307.477966,512.505371 296.627777,498.295135 288.306549,482.066040 
	C285.442139,492.355286 281.778320,501.715302 274.461700,509.268921 
	C274.328461,504.360107 276.512054,500.162231 277.900146,495.739868 
	C280.838989,486.376892 283.848114,476.988037 280.645081,467.024048 
	C279.960999,464.895844 280.760010,463.649353 282.973663,463.855347 
	C285.616272,464.101227 288.275665,464.497925 290.842834,465.159149 
	C297.645203,466.911194 304.506073,468.127899 311.547089,468.250763 
	C312.867767,468.273834 314.181641,468.570343 315.503021,468.694519 
	C317.744202,468.905212 318.779785,470.312195 318.806030,472.361664 
	C318.832275,474.412628 317.357910,475.059418 315.527985,475.408478 
	C309.873535,476.487061 304.266754,476.324890 298.656586,475.134033 
	C296.558624,474.688751 294.513794,473.810974 291.832855,474.304565 
	C293.043823,477.772400 294.967712,480.770508 296.997375,483.644806 
	C309.581879,501.466553 322.170105,519.286621 334.907288,536.999268 
	C341.805786,546.592407 349.106323,555.896362 356.007782,565.487427 
	C358.520477,568.979248 360.340118,569.092590 363.303162,565.949890 
	C382.048615,546.068115 403.852631,530.441772 428.929230,519.478149 
	C431.479034,518.363342 432.610138,517.088867 432.280975,513.831482 
	C427.974579,471.214417 436.233002,431.034515 456.379425,393.297638 
	C469.587280,368.557617 487.523102,347.733124 509.181244,329.993652 
	C512.070557,327.627106 513.931702,327.584686 516.853394,329.998230 
	C536.966614,346.612946 554.032410,365.803375 566.876160,388.577179 
	C568.735474,391.873993 570.644409,392.178406 573.720581,390.632507 
	C592.160461,381.365570 611.040833,372.977173 630.226379,365.487457 
	C648.876038,358.206970 666.523987,348.339203 687.020996,344.009827 
	C678.300354,337.724579 669.626343,332.831909 664.483521,324.000916 
	C667.711853,324.143890 670.031250,325.920685 672.372559,327.587616 
	C680.034241,333.042511 688.261047,337.288177 697.429382,339.597443 
	C699.360352,340.083771 701.129089,340.525940 703.245911,339.873474 
	C706.454041,338.884674 707.494812,340.057556 706.320618,343.521637 
	C704.812195,347.971863 702.265198,351.873322 700.386841,356.117554 
	C698.362549,360.691681 696.448486,365.270416 695.356262,370.179230 
	C694.757019,372.872620 694.392456,376.483673 690.371948,375.491394 
	C686.415039,374.514832 687.781738,371.035675 688.240173,368.378143 
	C689.119507,363.280365 690.433838,358.297913 692.957947,353.704315 
	C693.732056,352.295654 694.731934,350.856110 693.827271,348.554016 
	C691.039246,349.450012 688.187500,350.195465 685.464783,351.268311 
	C662.693970,360.240814 640.087463,369.600891 617.599060,379.271454 
	C604.136047,385.060883 590.795044,391.114319 577.333862,396.895081 
	C573.635620,398.483246 573.180847,400.052917 574.824951,403.661346 
	C586.106201,428.420929 593.095093,454.242798 594.487793,481.582336 
	C595.050049,492.619385 594.833862,503.534607 593.476257,514.444397 
	C593.048828,517.879700 595.109070,518.666687 597.483521,519.723877 
	C618.216980,528.955444 636.926208,541.278931 653.490540,556.796753 
	C659.569702,562.491821 665.518982,568.340515 670.741577,574.859680 
	C672.452332,576.995056 674.109863,578.110046 677.119934,577.056213 
	C710.223694,565.466309 739.278076,547.483032 763.917358,522.461365 
	C764.252686,522.120850 764.447754,521.642151 765.024231,520.725525 
	C760.188721,520.224365 755.672485,519.720215 751.148865,519.294983 
	C741.827576,518.418762 732.807739,516.099426 723.813110,513.652832 
	C723.012146,513.434937 722.197388,513.206421 721.455566,512.845825 
	C720.066345,512.170471 718.576233,511.230286 719.045532,509.501648 
	C719.633118,507.337219 721.536743,507.633667 723.190674,508.120483 
	C730.867493,510.380096 738.671814,511.891907 746.615967,512.946838 
	C754.591309,514.005859 762.559143,514.023193 770.554993,513.977783 
	C777.055481,513.940857 778.924683,516.040649 778.469849,522.358826 
	C777.058044,541.969971 779.088013,561.263672 784.052246,580.266785 
	C784.346924,581.394714 784.769226,582.494263 784.994263,583.634216 
	C785.252991,584.944885 785.503845,586.406250 784.025085,587.180725 
	C782.512512,587.972961 781.106140,587.408325 779.889709,586.371765 
	C778.540405,585.221863 778.178894,583.585815 777.733887,581.965149 
	C773.166626,565.332642 770.994202,548.376221 770.782288,531.148926 
	C770.768188,530.003540 770.663818,528.859192 770.533447,526.466553 
	C757.286865,540.215027 742.995544,551.186829 727.616638,560.739929 
	C712.289734,570.260864 696.049683,577.880127 679.095276,583.431091 
	C678.751038,585.408997 679.797607,586.381958 680.558838,587.417053 
	C700.713013,614.822754 712.365967,645.680786 717.973877,679.036926 
	C718.484436,682.073669 717.215515,683.312317 714.752808,684.242615 
	C695.325500,691.581421 675.374329,696.917053 654.595703,698.044128 
	C635.284424,699.091675 615.926575,699.095459 596.918213,694.548828 
	C593.853210,693.815796 592.131409,694.870544 591.095032,697.579773 
	C588.894897,703.330994 586.227051,708.962891 584.674744,714.885803 
	C583.057983,721.054260 580.377014,726.767578 578.228516,733.108276 
M539.198608,414.671356 
	C535.674133,416.220032 533.229980,419.501465 529.489929,420.712280 
	C528.187134,421.134003 526.848083,421.579865 525.807190,420.334198 
	C524.743408,419.061066 525.499634,417.747742 526.180664,416.644867 
	C527.609619,414.330780 529.715515,412.712128 532.056824,411.361725 
	C536.600586,408.740906 541.118408,406.075104 545.895569,403.282715 
	C537.694092,387.850464 527.239014,374.802856 515.307434,362.855865 
	C512.718262,360.263367 511.188965,362.448273 509.554688,364.051422 
	C494.890686,378.436188 483.376526,395.110596 474.536285,413.559448 
	C463.629089,436.321838 457.803101,460.481964 456.442322,485.659424 
	C456.034637,493.202515 455.727875,500.858063 458.178406,508.773560 
	C494.826660,499.285919 531.349487,499.300720 568.132507,508.869049 
	C568.580200,505.949280 568.974487,503.692322 569.258362,501.421539 
	C569.464050,499.776184 569.615112,498.113617 569.634521,496.456909 
	C569.944214,469.980835 564.903870,444.522339 554.522156,420.201477 
	C549.215637,407.770020 551.432068,409.881195 539.198608,414.671356 
M456.501801,590.926636 
	C448.123627,576.155518 442.481506,560.246033 437.597046,543.578796 
	C414.982666,554.244141 395.718475,568.125916 379.291168,586.010925 
	C376.484100,589.067078 376.117035,591.286194 378.989929,594.423767 
	C385.482483,601.514465 389.804291,610.437073 397.716614,616.392395 
	C399.392059,617.653442 401.525665,620.083679 399.469788,622.349792 
	C397.708649,624.291077 395.402466,622.515625 393.597870,621.455688 
	C390.403900,619.579773 387.938293,616.837036 385.518677,614.079224 
	C380.634399,608.512268 375.762756,602.934265 370.966461,597.452820 
	C368.553619,598.599426 367.439697,600.310608 366.307831,601.917969 
	C353.648804,619.894836 343.820892,639.209473 338.146088,660.575806 
	C337.066040,664.642212 337.914093,666.246521 341.910461,667.250488 
	C352.598999,669.935486 363.414337,671.952698 374.380524,672.630371 
	C415.558746,675.174744 453.651947,665.550537 488.310242,642.948120 
	C489.756378,642.005005 491.689087,641.386841 492.148621,638.842224 
	C478.435242,624.727478 466.374695,609.086243 456.501801,590.926636 
M634.284485,594.065125 
	C613.548279,596.812744 592.832458,597.129395 572.166199,593.436340 
	C569.189758,592.904419 567.605286,594.240173 566.187683,596.678467 
	C561.581604,604.600708 556.613708,612.301147 550.743774,619.363220 
	C545.133728,626.112671 539.414062,632.770996 533.882019,639.304626 
	C534.031433,639.828186 534.024292,640.058838 534.129639,640.136230 
	C550.967346,652.495544 569.653809,660.968445 589.722900,666.514771 
	C591.512451,667.009399 593.197998,666.675232 593.754761,664.659241 
	C595.871216,656.996521 600.464966,650.126038 600.856628,641.896667 
	C601.006226,638.752747 601.693481,635.636841 605.426086,634.441528 
	C607.929749,636.896545 608.213562,639.733154 607.749451,642.829834 
	C606.635803,650.259949 604.260132,657.372803 602.110168,664.520630 
	C601.014343,668.164246 601.620361,669.445679 605.504822,670.128418 
	C631.977600,674.781189 658.177979,673.797180 684.218445,667.154297 
	C687.944275,666.203857 688.943237,664.804871 687.923767,660.895996 
	C682.126587,638.668640 671.726379,618.767273 658.585388,600.064392 
	C654.017334,593.562988 649.358276,589.513184 641.058167,593.002808 
	C639.280579,593.750183 637.135498,593.623291 634.284485,594.065125 
M476.394073,531.016479 
	C473.309052,531.714539 470.246521,532.543518 467.133514,533.078735 
	C462.908508,533.805176 461.815063,535.641052 463.066376,540.006653 
	C469.950592,564.025024 480.967621,585.886902 496.549286,605.400452 
	C501.495667,611.594971 506.507629,617.804321 513.250671,622.868347 
	C525.042053,611.781189 534.835571,599.598206 542.708923,586.205933 
	C541.458191,583.981079 539.734924,583.586731 538.302673,582.809692 
	C530.321167,578.479492 523.142700,573.141968 517.301025,566.131042 
	C516.292236,564.920410 514.520447,563.589294 516.215881,561.900696 
	C517.640686,560.481628 519.417847,561.377502 520.771973,562.367065 
	C521.966370,563.239990 522.978394,564.392273 523.965454,565.514038 
	C528.659973,570.849609 534.481567,574.653687 540.572388,578.185425 
	C544.436462,580.426025 546.785950,579.916992 548.862427,575.747131 
	C554.523499,564.378967 559.003662,552.592407 562.799255,540.484619 
	C564.272766,535.783997 563.057190,534.060791 558.404663,532.903442 
	C531.470032,526.202942 504.441650,525.249878 476.394073,531.016479 
M597.508423,589.883850 
	C613.526917,590.218994 629.458252,589.761414 645.974365,585.155884 
	C628.944214,567.357666 610.361206,553.728516 588.379761,543.710876 
	C583.811584,558.887756 578.964661,573.453796 571.233032,587.689453 
	C580.323730,589.418762 588.394470,589.879272 597.508423,589.883850 
z"/>
<path fill="#000000" opacity="1.000000" stroke="none" 
	d="
M736.032837,334.689972 
	C735.801025,337.044464 736.412659,340.471741 734.522827,340.339172 
	C730.667175,340.068756 726.850952,342.726624 723.044006,340.370483 
	C719.703247,338.302856 718.179199,333.205750 719.616333,328.325897 
	C720.882507,324.026703 723.747559,322.121399 728.216370,322.691742 
	C729.176147,322.814178 730.133423,322.955994 730.996155,323.075653 
	C731.300720,322.586182 731.508179,322.330170 731.633423,322.038757 
	C732.448975,320.140778 730.536255,316.364655 733.958496,316.527008 
	C736.952515,316.669098 735.884949,320.190948 735.977295,322.318268 
	C736.149353,326.283447 736.033569,330.261108 736.032837,334.689972 
M726.751526,337.533997 
	C731.395752,336.556702 733.506348,331.788086 730.934631,328.076996 
	C730.009949,326.742737 728.720947,326.189423 727.114685,326.285858 
	C725.462158,326.385071 724.076355,327.215820 723.734497,328.716217 
	C723.009277,331.898651 722.102722,335.312897 726.751526,337.533997 
z"/>
<path fill="#000000" opacity="1.000000" stroke="none" 
	d="
M628.920410,848.881226 
	C627.657776,850.813599 625.702759,850.995789 624.139160,851.836548 
	C624.317749,852.071655 624.394287,852.285400 624.513733,852.312927 
	C626.984253,852.882751 630.144348,852.241638 631.020264,855.704468 
	C631.519897,857.679749 630.716492,859.448975 628.948120,860.363525 
	C626.010437,861.883057 622.892151,861.859558 619.847900,860.556580 
	C619.276123,860.311829 618.676575,859.785156 618.408142,859.233643 
	C616.498474,855.310242 620.083008,851.741272 619.049866,847.666199 
	C617.734009,842.476257 621.350220,841.039246 625.648193,840.684937 
	C627.054077,840.568970 628.237061,838.968506 630.188599,840.233215 
	C628.892578,842.849304 630.664490,845.853943 628.920410,848.881226 
M625.730042,858.536682 
	C626.703552,858.126221 627.847534,857.375305 626.824524,856.430603 
	C625.076050,854.815857 623.285400,855.523621 621.745667,856.950256 
	C622.344788,859.062622 623.853027,858.533630 625.730042,858.536682 
z"/>
<path fill="#000000" opacity="1.000000" stroke="none" 
	d="
M754.001831,338.494629 
	C750.267273,342.268433 746.311890,342.191925 742.471497,339.624939 
	C739.170593,337.418549 738.134460,331.930481 739.856628,327.763641 
	C741.565308,323.629547 744.777161,322.133118 749.094849,322.673004 
	C753.448303,323.217346 755.014648,326.269043 755.052490,330.040344 
	C755.095459,334.325836 751.518127,332.974182 749.098083,333.247894 
	C747.474548,333.431488 745.765137,332.915131 744.229858,333.833832 
	C745.267944,337.961182 746.788025,338.700867 750.758728,336.562134 
	C752.979553,335.365936 754.669312,334.192932 754.001831,338.494629 
M749.511292,326.768890 
	C745.532715,326.170288 745.532715,326.170288 744.380249,329.230652 
	C749.175415,329.912445 749.175415,329.912445 749.511292,326.768890 
z"/>
<path fill="#000000" opacity="1.000000" stroke="none" 
	d="
M321.790039,413.491516 
	C325.736298,420.522339 325.736298,420.522339 322.121674,425.447266 
	C323.611359,424.903625 324.638733,424.503204 325.683014,424.153320 
	C327.434204,423.566528 328.977356,423.845856 330.053894,425.453522 
	C331.243988,427.230774 330.881592,428.962097 329.545258,430.452942 
	C327.730133,432.477844 325.548553,434.178619 322.696838,433.837585 
	C319.888428,433.501801 319.209076,431.242126 319.002930,428.722351 
	C318.925476,427.775726 318.371429,426.848755 317.950134,425.952576 
	C314.588959,418.803070 314.582733,418.806000 321.790039,413.491516 
z"/>
<path fill="#000000" opacity="1.000000" stroke="none" 
	d="
M235.749329,478.211609 
	C235.399460,477.053467 235.175674,476.247314 234.816864,475.506622 
	C231.207611,468.055908 231.201370,468.058929 238.161743,462.005371 
	C239.785126,465.464172 243.484756,468.191162 240.202026,472.755188 
	C243.065186,473.066467 246.841415,471.553253 247.168289,476.031342 
	C247.455429,479.964569 244.318558,481.372314 241.305328,482.426758 
	C237.918930,483.611786 236.416351,481.636841 235.749329,478.211609 
z"/>
<path fill="#000000" opacity="1.000000" stroke="none" 
	d="
M444.383789,849.884460 
	C444.152954,852.024658 444.984863,854.007202 442.854828,855.511841 
	C439.763885,853.871643 441.313538,850.891602 440.888489,848.565918 
	C440.608826,847.035767 441.304352,844.730835 438.973358,844.602661 
	C436.485565,844.465820 436.578735,846.800171 436.235779,848.573120 
	C435.799561,850.828003 437.210541,853.553955 434.589569,855.493408 
	C431.437469,853.624939 433.121704,850.666138 432.705505,848.302063 
	C432.423798,846.702148 432.821777,844.532104 430.474030,844.581543 
	C428.315857,844.626953 428.427612,846.734680 428.071198,848.354065 
	C427.553925,850.704529 429.500549,855.089661 426.117554,854.956726 
	C422.484650,854.814087 424.551483,850.365234 424.156433,847.837036 
	C423.855621,845.912109 423.940643,843.847351 424.855255,841.977295 
	C429.732361,839.553162 434.926239,841.647156 439.982880,841.128174 
	C445.107178,840.602417 444.132477,845.930237 444.383789,849.884460 
z"/>
<path fill="#000000" opacity="1.000000" stroke="none" 
	d="
M548.712219,840.874817 
	C550.244385,841.613770 551.584229,842.085388 552.462219,843.000244 
	C553.768921,844.361755 554.417175,846.212891 553.755188,848.080994 
	C553.062622,850.035217 551.178589,849.848450 549.515442,849.927490 
	C548.231995,849.988403 546.951294,850.108154 545.352417,850.224792 
	C547.182190,855.021851 550.211243,850.941162 552.734070,851.750427 
	C553.310242,854.484558 551.529724,855.456909 549.360168,855.928040 
	C546.103760,856.635193 543.390076,855.708191 541.718872,852.664185 
	C538.762451,847.279236 541.780701,841.891846 548.712219,840.874817 
z"/>
<path fill="#000000" opacity="1.000000" stroke="none" 
	d="
M777.162476,469.981567 
	C783.664062,475.230164 783.680359,480.173737 777.452332,483.917908 
	C772.607056,486.830811 769.759338,484.031128 767.390625,480.356903 
	C765.200989,480.508453 764.612732,483.638824 762.195740,482.778748 
	C761.279541,481.840118 761.382629,480.869751 762.170593,480.092102 
	C765.825684,476.485077 769.522583,472.920074 773.227417,469.363831 
	C774.558960,468.085663 775.843201,468.068970 777.162476,469.981567 
M771.867554,475.356049 
	C770.344971,477.228516 769.597595,479.186066 771.976135,480.869659 
	C773.859619,482.202789 775.507202,480.981049 776.809875,479.724304 
	C778.136475,478.444366 779.242188,476.750549 777.918945,474.904694 
	C776.203003,472.511047 774.230469,473.463043 771.867554,475.356049 
z"/>
<path fill="#000000" opacity="1.000000" stroke="none" 
	d="
M457.194489,843.064331 
	C459.059174,847.133728 457.235107,851.339783 459.683746,855.296387 
	C456.405853,855.590088 453.690826,856.025208 450.976990,856.017700 
	C448.674774,856.011292 446.755524,854.841858 446.173553,852.439331 
	C445.553223,849.878784 447.282196,848.554077 449.202423,847.326965 
	C450.661041,846.394897 452.993530,847.330200 453.873413,845.105591 
	C451.903473,842.536743 449.588470,846.445251 447.620270,844.758240 
	C449.149597,840.322388 452.381775,839.621155 457.194489,843.064331 
z"/>
<path fill="#000000" opacity="1.000000" stroke="none" 
	d="
M565.265991,855.621582 
	C564.414795,855.526001 563.881287,855.391846 563.428284,855.527100 
	C560.075256,856.528259 556.796204,856.588013 555.649231,852.630615 
	C554.417053,848.378967 557.783569,847.310242 560.976135,846.409546 
	C561.575745,846.240417 562.106812,845.828491 562.778015,845.470764 
	C561.002014,842.616577 558.679260,846.104492 556.602051,844.374512 
	C556.737732,841.493469 559.172119,841.176697 561.316101,840.877258 
	C563.906494,840.515503 565.991882,841.686096 566.815857,844.183289 
	C567.901855,847.474426 566.743103,851.078613 568.191223,854.466797 
	C568.697388,855.651123 566.864502,855.983704 565.265991,855.621582 
z"/>
<path fill="#000000" opacity="1.000000" stroke="none" 
	d="
M512.968994,848.049805 
	C514.556580,841.670044 518.631836,839.235474 522.879578,841.720581 
	C525.135376,843.040344 526.173889,845.087524 525.773010,847.573914 
	C525.327881,850.334839 522.904846,849.711975 520.995178,849.942444 
	C519.745789,850.093201 518.367004,849.355042 517.039307,850.579346 
	C518.916748,854.870972 522.107117,851.231750 524.868408,851.658752 
	C525.034485,855.195190 522.679321,855.942078 520.220215,856.046875 
	C515.077393,856.265930 513.335144,852.947144 512.968994,848.049805 
z"/>
<path fill="#000000" opacity="1.000000" stroke="none" 
	d="
M268.253876,450.187439 
	C264.071655,450.130859 265.536926,452.340759 266.281036,454.337555 
	C267.039825,456.373657 269.452911,457.909027 267.987579,461.353607 
	C263.941772,458.540985 262.738251,454.350220 260.780396,450.867981 
	C263.820557,446.466431 269.001129,446.032013 272.414429,442.884552 
	C273.463440,441.917206 275.370331,442.302551 276.537292,443.502777 
	C279.076202,446.114044 280.858032,449.153748 282.030731,453.243225 
	C276.714935,452.921570 277.599670,446.715332 273.337738,446.012085 
	C269.658264,449.944946 276.146088,452.895172 274.604645,456.852173 
	C270.606903,456.390778 270.877808,452.096039 268.253876,450.187439 
z"/>
<path fill="#000000" opacity="1.000000" stroke="none" 
	d="
M857.742920,571.025146 
	C853.004028,572.077148 850.850830,569.309021 850.143005,565.682800 
	C849.261963,561.168579 852.395630,558.553101 856.102966,557.068176 
	C859.538391,555.692139 862.197571,557.442444 864.040955,560.406067 
	C865.723450,563.111084 864.926270,565.638000 862.832886,567.578613 
	C860.277649,569.947388 859.198364,567.020569 857.689453,565.766052 
	C856.719666,564.959717 856.078918,563.575623 854.212524,563.870300 
	C852.517029,566.119141 854.206299,567.313843 855.893311,568.378845 
	C856.882568,569.003357 858.824951,568.676208 857.742920,571.025146 
z"/>
<path fill="#000000" opacity="1.000000" stroke="none" 
	d="
M214.283676,448.516479 
	C213.239960,446.620941 212.408463,445.026825 211.534836,443.351898 
	C214.705505,439.209808 220.124344,438.832458 223.269684,435.180542 
	C223.999802,434.332825 225.599426,434.460663 226.539597,435.235413 
	C229.748459,437.879578 231.833557,441.199554 232.843979,445.752136 
	C229.086090,445.670288 228.830765,442.871674 227.497375,441.263702 
	C226.500229,440.061157 225.936417,437.684906 223.883591,438.752594 
	C221.439850,440.023560 223.402679,441.910980 223.963104,443.477203 
	C224.641068,445.371826 226.664261,446.883423 225.736404,449.508270 
	C221.056366,449.243011 222.155441,442.051666 216.967148,442.607910 
	C214.877243,446.715851 220.522156,449.197357 219.276321,453.272919 
	C216.104691,453.257355 215.950073,450.324188 214.283676,448.516479 
z"/>
<path fill="#000000" opacity="1.000000" stroke="none" 
	d="
M294.128479,432.507263 
	C296.797333,435.571747 299.426758,438.277252 299.606018,442.667511 
	C295.909210,442.449402 295.891113,439.252563 294.362244,437.585724 
	C293.374298,436.508606 292.688904,434.698883 290.858154,435.769287 
	C289.112732,436.789795 290.066986,438.319122 290.584290,439.743164 
	C291.334076,441.807129 293.638733,443.374542 292.657471,446.337158 
	C288.283447,445.749115 288.895416,440.243256 285.056152,438.996918 
	C280.570312,443.059753 288.188324,445.994873 285.956207,450.395508 
	C281.636932,448.206207 281.104340,443.657318 278.554138,439.875580 
	C283.437805,436.537842 287.708771,432.705048 294.128479,432.507263 
z"/>
<path fill="#000000" opacity="1.000000" stroke="none" 
	d="
M779.441772,493.351257 
	C776.566223,487.585632 779.307922,482.085175 785.048523,481.273560 
	C789.140137,480.695099 792.606750,483.896240 792.333374,487.991730 
	C792.204102,489.927673 791.466309,491.569580 789.735168,492.511688 
	C787.675659,493.632538 786.861023,491.666321 785.667786,490.670013 
	C784.564148,489.748535 783.947327,488.199005 782.000610,487.958740 
	C779.888000,492.176788 784.812683,492.102081 786.322632,494.640045 
	C783.525635,497.061737 781.607727,495.443237 779.441772,493.351257 
z"/>
<path fill="#000000" opacity="1.000000" stroke="none" 
	d="
M761.960266,327.098297 
	C762.979797,329.752838 763.857544,332.053558 764.879211,334.731781 
	C768.766052,331.456635 767.104431,324.635010 773.884155,322.340485 
	C772.408813,329.201935 770.171326,334.482910 767.596130,339.538971 
	C766.303284,342.077332 763.718689,341.607208 762.558228,339.157532 
	C760.239319,334.262451 757.969299,329.295837 756.938354,323.745789 
	C760.528259,322.020050 760.919006,324.782288 761.960266,327.098297 
z"/>
<path fill="#000000" opacity="1.000000" stroke="none" 
	d="
M230.636963,435.076294 
	C228.731766,429.982025 233.373718,429.776642 235.549377,428.387146 
	C238.341324,426.604004 240.996552,428.385742 242.737381,430.962799 
	C244.654388,433.800629 245.258636,436.815277 242.817001,439.674866 
	C241.984650,440.649658 240.742355,441.274414 239.742203,442.018341 
	C238.792999,443.790100 241.589996,445.480377 238.946228,447.885406 
	C235.312897,444.341034 233.723114,439.378326 230.636963,435.076294 
M236.622147,437.758026 
	C238.319626,438.970306 239.835098,438.752502 240.760223,436.886261 
	C241.754333,434.880890 240.534134,433.346863 239.149200,432.083038 
	C238.045349,431.075653 236.588379,430.958069 235.523712,432.023315 
	C233.630875,433.917175 234.872650,435.661652 236.622147,437.758026 
z"/>
<path fill="#000000" opacity="1.000000" stroke="none" 
	d="
M212.138123,487.976501 
	C213.556305,492.565674 211.168579,494.887665 208.117294,496.393127 
	C206.901108,498.389221 209.672165,500.176483 207.111801,502.274811 
	C202.964722,498.021973 200.967834,492.455688 197.896652,487.675995 
	C205.176620,480.836212 207.730408,480.872040 212.138123,487.976501 
M203.640320,486.823944 
	C201.354843,489.916382 203.321213,491.829559 205.742905,493.159668 
	C207.429276,494.085876 208.695892,492.757477 208.794022,491.065948 
	C208.970886,488.017639 208.022232,485.756256 203.640320,486.823944 
z"/>
<path fill="#000000" opacity="1.000000" stroke="none" 
	d="
M481.086426,840.908813 
	C484.148071,840.499634 486.777893,841.026855 487.548767,843.835205 
	C488.597382,847.655701 489.123230,851.681274 487.103455,855.685974 
	C483.644653,853.982117 485.045837,851.336182 484.720154,849.249146 
	C484.405365,847.231689 485.202209,844.348633 481.938507,844.464844 
	C478.897736,844.573120 479.428345,847.350769 479.176788,849.427979 
	C478.923859,851.516296 480.087891,854.127075 476.480469,855.815674 
	C475.084290,848.948792 475.383636,842.570557 476.276611,836.191223 
	C480.479462,835.968994 477.969849,840.543945 481.086426,840.908813 
z"/>
<path fill="#000000" opacity="1.000000" stroke="none" 
	d="
M252.437302,427.171997 
	C251.088791,428.310425 249.360107,428.524841 248.950729,430.383850 
	C252.082352,432.763702 252.817642,428.409149 255.738556,428.080963 
	C256.390442,431.192230 254.851578,432.860260 252.382660,434.048401 
	C250.020370,435.185120 247.914413,434.752991 246.039490,432.896210 
	C243.778061,430.656769 242.369949,428.058350 243.359802,424.875183 
	C244.098526,422.499603 246.105698,421.208344 248.514481,420.698181 
	C250.528610,420.271729 252.054718,421.217163 253.280960,422.703766 
	C254.594070,424.295746 254.304214,425.731079 252.437302,427.171997 
z"/>
<path fill="#000000" opacity="1.000000" stroke="none" 
	d="
M254.630478,453.494202 
	C257.312439,452.676178 258.899048,453.778839 259.867371,455.704895 
	C261.074860,458.106659 262.895874,459.963318 265.707336,462.611694 
	C261.176697,463.233398 259.296844,469.876984 254.337311,466.056854 
	C250.335007,462.973999 254.051224,460.007172 256.423157,457.354919 
	C253.751938,456.066254 253.336044,459.910889 251.207932,459.112946 
	C250.362076,455.969055 250.362076,455.969055 254.630478,453.494202 
z"/>
<path fill="#000000" opacity="1.000000" stroke="none" 
	d="
M293.704102,401.869629 
	C292.153778,396.533203 293.384705,393.260284 297.103882,392.250885 
	C299.925049,391.485168 302.062073,392.686096 303.260345,395.156219 
	C304.432709,397.572968 302.233154,398.267639 300.683594,399.115814 
	C299.543579,399.739777 298.294525,400.187958 297.966156,401.757538 
	C301.561646,404.346527 302.108826,399.577393 304.776154,399.172699 
	C306.366150,402.194946 304.353912,403.844299 302.273712,404.983124 
	C298.689972,406.945129 295.937622,405.421509 293.704102,401.869629 
z"/>
<path fill="#000000" opacity="1.000000" stroke="none" 
	d="
M825.426758,520.078674 
	C827.406128,524.426697 826.012451,527.531128 822.747009,529.963379 
	C820.247375,531.825195 817.511719,531.971985 814.851990,530.282532 
	C811.244690,527.991333 810.549744,523.764160 813.122498,520.356079 
	C816.645020,515.689880 820.658936,515.484924 825.426758,520.078674 
M821.599121,520.686218 
	C818.572144,519.564636 816.873535,521.321716 815.637268,523.641296 
	C814.856506,525.106384 815.296875,526.554504 816.692505,527.570862 
	C818.362976,528.787415 819.939026,528.205200 821.136230,526.934021 
	C822.690613,525.283569 824.648499,523.508362 821.599121,520.686218 
z"/>
<path fill="#000000" opacity="1.000000" stroke="none" 
	d="
M797.959717,496.018188 
	C794.978210,494.854675 793.895691,497.222565 792.264099,498.467590 
	C790.668457,499.685181 789.521484,501.933533 786.099304,500.790497 
	C788.440002,496.353729 791.565796,493.035767 795.647095,491.085968 
	C798.154724,489.887970 803.966553,496.827179 802.713989,499.489349 
	C800.883789,503.379272 797.919312,506.357666 793.637817,508.457367 
	C792.323120,504.588257 795.379211,503.666321 796.655029,501.852448 
	C797.859680,500.139648 800.946045,498.984741 797.959717,496.018188 
z"/>
<path fill="#000000" opacity="1.000000" stroke="none" 
	d="
M769.947571,467.874786 
	C766.091858,473.044373 762.393311,474.368958 759.051880,471.818176 
	C756.182007,469.627350 754.549622,466.739960 756.608826,463.207916 
	C758.528259,459.915619 761.281982,457.222321 765.467285,458.539551 
	C769.711670,459.875397 771.324341,463.110931 769.947571,467.874786 
M763.679688,461.518555 
	C762.016296,461.992279 760.651672,462.904480 759.796448,464.419800 
	C759.102661,465.649231 759.012756,466.981476 759.833679,468.191742 
	C760.665466,469.418182 761.935059,469.903290 763.316528,469.405273 
	C765.281982,468.696777 766.831970,467.271515 767.327148,465.274414 
	C767.874573,463.066681 766.358276,461.969543 763.679688,461.518555 
z"/>
<path fill="#000000" opacity="1.000000" stroke="none" 
	d="
M603.645447,852.403625 
	C603.642212,848.681946 603.642212,845.384521 603.642212,842.589539 
	C605.433838,840.567078 607.247620,841.624023 608.808411,841.192322 
	C613.134705,839.995911 615.403320,842.180298 616.019897,846.387756 
	C616.115967,847.043091 616.225098,847.730408 616.130371,848.373779 
	C615.778503,850.762512 617.616150,854.827942 614.106567,854.976868 
	C610.838989,855.115662 612.446960,851.092041 612.037964,848.873230 
	C611.726379,847.182495 612.507690,844.705811 609.909119,844.527405 
	C607.202271,844.341614 607.257874,846.961548 606.652771,848.786133 
	C605.954041,850.892822 607.491577,853.452087 605.472595,855.275635 
	C603.559448,855.284668 603.794434,853.924255 603.645447,852.403625 
z"/>
<path fill="#000000" opacity="1.000000" stroke="none" 
	d="
M830.205322,543.080627 
	C825.906982,543.247986 823.756897,540.406860 822.275818,537.423218 
	C820.786743,534.423218 823.578552,532.584961 825.488098,530.863770 
	C827.288330,529.241028 828.559692,526.561035 831.944092,526.709961 
	C831.900696,530.445435 828.807007,531.523193 827.231628,533.637512 
	C826.276672,534.919128 824.557678,536.080505 826.367859,537.816345 
	C827.849854,539.237427 829.369019,538.577759 830.862366,537.584656 
	C833.073792,536.114014 834.228638,532.958130 838.410583,533.185669 
	C837.250305,538.016602 833.170166,539.934875 830.205322,543.080627 
z"/>
<path fill="#000000" opacity="1.000000" stroke="none" 
	d="
M501.448425,848.632568 
	C501.080780,851.087158 502.040680,853.359802 500.432709,855.231262 
	C497.560944,853.199951 497.038086,848.747070 498.907318,841.526306 
	C502.225891,842.114685 506.197418,838.853516 508.951080,842.508423 
	C511.852539,846.359436 510.148438,850.928955 510.028442,855.723572 
	C505.776978,854.342285 507.359314,851.389404 506.942932,849.273315 
	C506.609711,847.580017 507.562653,845.133118 505.241058,844.562256 
	C502.602051,843.913391 502.085846,846.316162 501.448425,848.632568 
z"/>
<path fill="#000000" opacity="1.000000" stroke="none" 
	d="
M585.710571,844.940002 
	C583.678467,847.553284 584.549316,850.322571 584.242310,852.912415 
	C584.101196,854.102356 583.960449,855.374084 582.315796,855.191589 
	C581.077820,855.054199 580.826477,853.989014 580.795288,852.964661 
	C580.724487,850.641907 580.590332,848.308044 580.741821,845.995728 
	C580.859070,844.206909 579.999084,841.608337 583.135925,841.460449 
	C586.551025,841.299561 590.864258,839.045227 592.676697,843.841614 
	C594.051392,847.479736 593.798340,851.479858 592.417175,855.725769 
	C588.676514,854.017212 590.094482,851.018066 589.806580,848.712585 
	C589.510559,846.343201 589.764099,843.686890 585.710571,844.940002 
z"/>
<path fill="#000000" opacity="1.000000" stroke="none" 
	d="
M807.674377,508.094604 
	C810.262451,505.703430 812.590576,506.337219 814.564270,508.235443 
	C816.043518,509.658112 817.627197,511.379730 816.034790,513.626587 
	C813.286438,514.164856 813.670654,510.199219 810.839600,510.793152 
	C810.879211,514.061279 814.448303,517.825989 809.953857,520.541260 
	C808.145081,521.633911 806.375977,521.200806 804.852905,519.955200 
	C802.729431,518.218567 801.085388,516.228699 802.226013,513.298462 
	C805.754578,512.288025 804.583130,517.980835 808.270874,516.723022 
	C808.955811,513.929260 805.371887,511.331970 807.674377,508.094604 
z"/>
<path fill="#000000" opacity="1.000000" stroke="none" 
	d="
M462.246765,843.434998 
	C467.863007,839.506226 470.780365,839.924316 473.399780,845.056030 
	C470.192780,846.059265 463.438110,841.286865 464.573517,849.308899 
	C465.425354,855.327271 469.832153,851.111633 472.903107,850.941345 
	C473.773346,854.584351 471.401917,855.546143 468.988373,855.981262 
	C465.514008,856.607483 462.688721,855.226685 461.344879,851.882996 
	C460.257263,849.176880 460.425690,846.353271 462.246765,843.434998 
z"/>
<path fill="#000000" opacity="1.000000" stroke="none" 
	d="
M223.631607,471.395081 
	C229.359955,470.922821 233.640778,474.759460 232.784531,479.233673 
	C232.235580,482.102081 230.334045,483.884857 227.557556,484.685883 
	C224.625885,485.531647 222.835709,483.843323 221.340775,481.694794 
	C219.612991,479.211731 218.905487,476.539154 220.676407,473.815430 
	C221.276840,472.891937 222.391769,472.302979 223.631607,471.395081 
M229.413376,479.156738 
	C229.467422,476.684326 228.295212,475.004974 225.930252,474.427399 
	C224.461609,474.068756 223.316620,474.976166 222.878113,476.363861 
	C222.301880,478.187286 223.317932,479.610626 224.611618,480.687073 
	C226.391724,482.168213 227.960770,481.644257 229.413376,479.156738 
z"/>
<path fill="#000000" opacity="1.000000" stroke="none" 
	d="
M209.539719,459.147034 
	C206.523895,459.630463 204.143646,459.281616 202.495743,456.944092 
	C200.285065,453.808350 199.425186,450.522125 202.600708,447.577240 
	C205.534927,444.856110 208.600189,445.297272 211.409821,448.032806 
	C214.553268,451.093384 214.789154,454.612976 211.964630,457.644379 
	C211.417862,458.231171 210.622620,458.586365 209.539719,459.147034 
M204.343842,450.541168 
	C203.102310,453.892548 204.881836,455.694000 207.801743,456.272552 
	C209.415588,456.592316 210.809586,455.044403 210.402054,453.398132 
	C209.724274,450.660217 208.413467,448.212952 204.343842,450.541168 
z"/>
<path fill="#000000" opacity="1.000000" stroke="none" 
	d="
M312.431671,428.537384 
	C311.187714,426.825348 310.324646,424.507874 308.126587,425.671417 
	C305.694427,426.958893 307.109436,429.092346 307.858887,430.890869 
	C308.572693,432.603790 310.250641,434.033691 309.401886,437.035828 
	C305.018951,434.549194 304.249603,430.141632 301.757965,426.612610 
	C304.710907,424.648285 306.772247,420.639008 310.601135,422.217255 
	C314.509644,423.828308 316.034393,427.870483 317.369049,432.152863 
	C313.896545,432.713440 313.732666,430.184448 312.431671,428.537384 
z"/>
<path fill="#000000" opacity="1.000000" stroke="none" 
	d="
M841.609863,558.040588 
	C840.143616,552.522705 841.464294,549.199768 845.555664,547.405884 
	C848.879395,545.948608 851.728455,546.726318 854.000793,549.489319 
	C855.471130,551.277283 855.965515,553.161377 853.992432,555.540527 
	C851.232605,553.001892 849.594849,546.466614 844.865906,552.316040 
	C840.768738,557.383911 847.515808,557.124146 849.207764,559.689148 
	C845.971436,562.494629 843.831604,560.830505 841.609863,558.040588 
z"/>
<path fill="#000000" opacity="1.000000" stroke="none" 
	d="
M193.068665,452.829956 
	C195.334274,451.884796 197.216751,451.326477 198.557663,454.157532 
	C196.499161,456.036438 190.504318,456.116760 194.273834,461.087494 
	C197.448151,465.273285 198.977936,460.001160 201.622772,458.987183 
	C202.931198,462.366760 201.601593,464.255188 198.923859,465.495911 
	C195.584717,467.043121 193.093704,465.595703 191.214432,462.892944 
	C188.632538,459.179688 188.759140,455.763458 193.068665,452.829956 
z"/>
<path fill="#000000" opacity="1.000000" stroke="none" 
	d="
M539.710571,854.022095 
	C537.976440,857.416504 535.588135,856.092957 535.008850,854.063782 
	C533.310364,848.114502 533.664001,842.046753 535.196899,835.403076 
	C538.443542,837.377197 537.759827,839.665955 537.995178,841.660583 
	C538.467529,845.664124 536.731750,849.969666 539.710571,854.022095 
z"/>
<path fill="#000000" opacity="1.000000" stroke="none" 
	d="
M286.093933,410.032043 
	C283.547058,407.700287 280.465363,406.518311 278.521057,403.576630 
	C282.589508,400.315155 283.993652,406.233276 287.067535,405.717804 
	C289.201538,403.384949 285.622437,400.282135 287.969208,397.919434 
	C290.152405,399.559204 292.701904,408.798248 291.359192,410.728760 
	C289.569794,413.301544 287.962799,411.340698 286.093933,410.032043 
z"/>
<path fill="#000000" opacity="1.000000" stroke="none" 
	d="
M273.283173,408.809875 
	C270.814850,413.713257 272.396698,416.024414 278.828308,417.007355 
	C278.434937,419.758850 276.619415,420.503876 274.280853,420.146759 
	C271.561829,419.731598 265.541290,410.443878 266.124542,407.770020 
	C266.185516,407.490417 266.522949,407.271179 266.978027,406.733337 
	C268.818237,408.066437 271.555511,406.179504 273.283173,408.809875 
z"/>
<path fill="#000000" opacity="1.000000" stroke="none" 
	d="
M573.348389,854.711914 
	C570.956970,855.982056 570.271545,854.527161 570.237488,852.944092 
	C570.157043,849.191833 569.487793,845.361267 571.138367,841.311829 
	C573.665039,842.174927 576.458862,839.830444 578.927551,842.316895 
	C574.808838,846.392029 574.808838,846.392029 573.348389,854.711914 
z"/>
<path fill="#000000" opacity="1.000000" stroke="none" 
	d="
M259.467957,415.368896 
	C257.678497,421.302490 259.000763,424.014740 265.302063,424.782074 
	C263.567383,428.970245 261.087524,429.496185 258.337006,426.071960 
	C256.493896,423.777374 255.323761,420.905762 252.149353,419.868896 
	C252.527893,418.138397 252.838562,416.718140 253.182053,415.147827 
	C255.328415,415.147827 257.259155,415.147827 259.467957,415.368896 
z"/>
<path fill="#000000" opacity="1.000000" stroke="none" 
	d="
M833.593750,544.665039 
	C836.328796,542.250183 838.306030,539.495483 841.456604,537.727539 
	C843.553772,539.517273 846.171753,540.654053 846.996277,543.846558 
	C844.154907,545.134338 841.585632,541.628540 838.896179,544.040039 
	C837.053833,545.692017 835.754639,548.430420 832.725891,548.402893 
	C831.250977,546.767090 832.500549,545.882202 833.593750,544.665039 
z"/>
<path fill="#000000" opacity="1.000000" stroke="none" 
	d="
M212.267090,483.891022 
	C210.096176,479.271271 211.714600,477.078766 217.281326,476.729675 
	C217.876770,479.185883 214.162903,480.551941 215.736679,483.443817 
	C216.782776,485.366089 219.204056,487.129974 217.810776,490.259277 
	C214.407349,489.436493 213.980606,486.304565 212.267090,483.891022 
z"/>
<path fill="#000000" opacity="1.000000" stroke="none" 
	d="
M245.792709,469.900940 
	C244.880646,468.308044 244.095551,467.040222 243.392426,465.728516 
	C242.634918,464.315308 241.014206,462.674500 242.374893,461.260742 
	C243.905548,459.670288 245.572250,457.356934 249.596741,458.818909 
	C242.711395,463.359985 249.658310,467.266815 249.659561,471.458649 
	C247.402771,473.048706 246.807785,471.323395 245.792709,469.900940 
z"/>
<path fill="#000000" opacity="1.000000" stroke="none" 
	d="
M491.031677,843.756287 
	C491.310394,842.342773 491.709686,841.390015 492.906586,841.376648 
	C493.895416,841.365601 494.359863,842.170044 494.320740,843.039185 
	C494.138641,847.085999 494.929260,851.203857 493.416595,856.169861 
	C489.331268,852.247681 491.637482,847.867554 491.031677,843.756287 
z"/>
<path fill="#000000" opacity="1.000000" stroke="none" 
	d="
M600.273499,849.849670 
	C600.257568,851.127319 600.266235,851.952332 600.217224,852.773926 
	C600.147156,853.950378 600.039429,855.283875 598.525513,855.333191 
	C597.010254,855.382629 596.663330,854.097534 596.743164,852.901489 
	C596.997375,849.094299 595.684631,845.123779 597.784912,841.054626 
	C601.613037,843.247253 599.653564,846.713013 600.273499,849.849670 
z"/>
<path fill="#000000" opacity="1.000000" stroke="none" 
	d="
M262.678528,416.519592 
	C261.746277,415.111176 260.882507,413.832184 262.401154,412.833954 
	C263.653931,412.010529 264.588623,413.035797 265.149841,414.092834 
	C266.779999,417.163269 269.451538,419.808167 269.517609,424.224579 
	C264.923950,423.355865 265.137207,418.941437 262.678528,416.519592 
z"/>
<path fill="#000000" opacity="1.000000" stroke="none" 
	d="
M303.504028,435.535095 
	C304.244385,437.093964 305.654572,438.292847 303.389923,440.120117 
	C299.921539,437.030182 297.972473,433.249451 296.809174,428.090210 
	C301.379425,429.233215 301.335022,433.086945 303.504028,435.535095 
z"/>
<path fill="#000000" opacity="1.000000" stroke="none" 
	d="
M275.300415,405.656921 
	C276.017059,405.190552 276.983856,404.722351 277.145966,404.918701 
	C279.805389,408.139160 282.121521,411.557556 282.269043,416.112122 
	C278.462799,413.722443 276.532928,410.051758 275.300415,405.656921 
z"/>
</svg>